<svg width="357" height="269" viewBox="0 0 357 269" fill="none" xmlns="http://www.w3.org/2000/svg">
<path fill-rule="evenodd" clip-rule="evenodd" d="M158.5 1.65601C104.561 13.159 72.319 69.153 89.205 122C100.125 156.174 129.561 180.751 165.919 186.052C181.004 188.251 201.64 185.415 215.365 179.256L221.34 176.574L213.42 169.249C207.411 163.691 205.017 162.065 203.5 162.513C196.575 164.556 182.623 166.976 177.708 166.987C160.797 167.025 140.014 158.778 127.656 147.125C118.383 138.381 109.286 122.168 106.417 109.272C103.938 98.128 104.806 80.028 108.31 69.807C116.428 46.129 137.732 26.756 161.459 21.477C172.621 18.994 189.683 19.807 200.5 23.338C224.134 31.052 242.222 50.13 249.189 74.691C252.029 84.704 252.244 101.328 249.658 111C247.935 117.445 241.537 131.655 238.627 135.5C237.164 137.433 236.863 137.252 229.623 130.091L222.132 122.681L224.954 117.091C233.28 100.593 233.081 84.462 224.346 67.84C215.607 51.209 197.796 41 177.518 41C158.041 41 140.718 51.111 131.728 67.728C128.281 74.1 124.995 86.668 125.015 93.41C125.062 109.654 134.587 127.623 147.742 136.286C165.253 147.817 183.994 149.089 202.056 139.972C209.153 136.389 207.243 135.476 220.95 149C226.246 154.225 232.254 160.056 234.302 161.959L238.025 165.417L244.602 158.959C276.822 127.316 280.644 74.988 253.436 38C240.341 20.198 221.968 7.92099 200.133 2.38199C188.933 -0.459005 169.969 -0.789988 158.5 1.65601ZM190.579 63.146C197.912 65.846 203.369 70.974 207.208 78.771C210.12 84.685 210.495 86.385 210.46 93.479C210.436 98.294 209.836 102.785 208.96 104.714L207.5 107.928L199.68 100.81L191.861 93.692L184.928 100.571L177.995 107.451L185.573 115.073L193.15 122.695L189.825 124.098C187.835 124.937 183.089 125.492 178 125.481C167.963 125.458 162.6 123.438 155.71 117.087C139.777 102.401 143.432 73.786 162.426 64.492C171.763 59.924 180.672 59.498 190.579 63.146Z" fill="#FF5C00"/>
<path d="M22.3125 234.648H32.7443L36.5114 239.381L42.8864 246.625L51.1932 256.67H39.3125L33.4205 249.812L29.4602 244.114L22.3125 234.648ZM51.0966 228.273C51.0966 233.778 50.026 238.423 47.8849 242.206C45.7438 245.973 42.8542 248.83 39.2159 250.778C35.5777 252.71 31.5208 253.676 27.0455 253.676C22.5379 253.676 18.465 252.702 14.8267 250.754C11.2045 248.79 8.32292 245.925 6.18182 242.158C4.05682 238.375 2.99432 233.746 2.99432 228.273C2.99432 222.767 4.05682 218.131 6.18182 214.364C8.32292 210.58 11.2045 207.723 14.8267 205.791C18.465 203.843 22.5379 202.869 27.0455 202.869C31.5208 202.869 35.5777 203.843 39.2159 205.791C42.8542 207.723 45.7438 210.58 47.8849 214.364C50.026 218.131 51.0966 222.767 51.0966 228.273ZM37.2841 228.273C37.2841 225.311 36.8897 222.815 36.1009 220.787C35.3281 218.742 34.1771 217.197 32.6477 216.151C31.1345 215.088 29.267 214.557 27.0455 214.557C24.8239 214.557 22.9484 215.088 21.419 216.151C19.9058 217.197 18.7547 218.742 17.9659 220.787C17.1932 222.815 16.8068 225.311 16.8068 228.273C16.8068 231.235 17.1932 233.738 17.9659 235.783C18.7547 237.811 19.9058 239.357 21.419 240.419C22.9484 241.465 24.8239 241.989 27.0455 241.989C29.267 241.989 31.1345 241.465 32.6477 240.419C34.1771 239.357 35.3281 237.811 36.1009 235.783C36.8897 233.738 37.2841 231.235 37.2841 228.273ZM81.6193 236.773V215.909H94.9489V253H82.2955V245.949H81.9091C81.1042 248.315 79.6956 250.167 77.6832 251.503C75.6709 252.823 73.2803 253.483 70.5114 253.483C67.9195 253.483 65.6496 252.887 63.7017 251.696C61.7699 250.505 60.2647 248.863 59.1861 246.77C58.1236 244.677 57.5843 242.278 57.5682 239.574V215.909H70.8977V236.773C70.9138 238.608 71.3807 240.049 72.2983 241.095C73.232 242.142 74.536 242.665 76.2102 242.665C77.321 242.665 78.2789 242.431 79.0838 241.964C79.9048 241.482 80.5327 240.805 80.9673 239.936C81.4181 239.051 81.6354 237.996 81.6193 236.773ZM101.728 253V215.909H115.058V253H101.728ZM108.393 212.045C106.59 212.045 105.045 211.45 103.757 210.259C102.469 209.067 101.825 207.634 101.825 205.96C101.825 204.286 102.469 202.853 103.757 201.662C105.045 200.471 106.59 199.875 108.393 199.875C110.212 199.875 111.758 200.471 113.029 201.662C114.317 202.853 114.961 204.286 114.961 205.96C114.961 207.634 114.317 209.067 113.029 210.259C111.758 211.45 110.212 212.045 108.393 212.045ZM122.236 253V245.659L138.463 226.244V226.051H122.815V215.909H154.207V224.023L139.429 242.665V242.858H154.787V253H122.236ZM188.624 219C188.495 217.39 187.891 216.134 186.813 215.233C185.75 214.331 184.132 213.881 181.959 213.881C180.575 213.881 179.44 214.05 178.554 214.388C177.685 214.71 177.041 215.152 176.623 215.716C176.204 216.279 175.987 216.923 175.971 217.648C175.938 218.243 176.043 218.783 176.284 219.266C176.542 219.732 176.944 220.159 177.492 220.545C178.039 220.916 178.739 221.254 179.593 221.56C180.446 221.866 181.46 222.139 182.635 222.381L186.692 223.25C189.429 223.83 191.771 224.594 193.719 225.544C195.667 226.494 197.261 227.613 198.5 228.901C199.74 230.172 200.65 231.605 201.229 233.199C201.825 234.793 202.131 236.531 202.147 238.415C202.131 241.667 201.318 244.42 199.708 246.673C198.098 248.927 195.796 250.642 192.801 251.817C189.823 252.992 186.241 253.58 182.056 253.58C177.757 253.58 174.007 252.944 170.803 251.672C167.615 250.4 165.136 248.444 163.365 245.804C161.611 243.148 160.725 239.751 160.709 235.614H173.459C173.54 237.127 173.918 238.399 174.594 239.429C175.27 240.459 176.22 241.24 177.444 241.771C178.683 242.303 180.156 242.568 181.863 242.568C183.295 242.568 184.495 242.391 185.461 242.037C186.426 241.683 187.159 241.192 187.658 240.564C188.157 239.936 188.415 239.22 188.431 238.415C188.415 237.658 188.165 236.998 187.682 236.435C187.215 235.855 186.443 235.34 185.364 234.889C184.285 234.422 182.828 233.988 180.993 233.585L176.067 232.523C171.688 231.573 168.235 229.987 165.708 227.766C163.196 225.528 161.949 222.477 161.965 218.614C161.949 215.474 162.786 212.73 164.476 210.379C166.183 208.013 168.541 206.17 171.551 204.849C174.578 203.529 178.047 202.869 181.959 202.869C185.952 202.869 189.405 203.537 192.319 204.874C195.232 206.21 197.478 208.093 199.056 210.524C200.65 212.939 201.454 215.764 201.471 219H188.624ZM220.777 232.136V253H207.447V203.545H220.294V222.96H220.68C221.517 220.594 222.91 218.75 224.858 217.43C226.806 216.094 229.148 215.426 231.885 215.426C234.509 215.426 236.787 216.022 238.718 217.213C240.666 218.404 242.172 220.046 243.234 222.139C244.313 224.232 244.844 226.631 244.828 229.335V253H231.498V232.136C231.514 230.301 231.056 228.86 230.122 227.814C229.204 226.768 227.892 226.244 226.186 226.244C225.107 226.244 224.157 226.486 223.336 226.969C222.531 227.436 221.904 228.112 221.453 228.997C221.018 229.866 220.793 230.913 220.777 232.136ZM261.743 253.58C259.377 253.58 257.284 253.193 255.465 252.42C253.662 251.632 252.245 250.44 251.215 248.847C250.185 247.253 249.669 245.224 249.669 242.761C249.669 240.733 250.016 239.002 250.708 237.57C251.4 236.121 252.366 234.938 253.605 234.02C254.845 233.102 256.286 232.402 257.928 231.919C259.586 231.436 261.373 231.122 263.289 230.977C265.365 230.816 267.032 230.623 268.287 230.398C269.559 230.156 270.477 229.826 271.04 229.408C271.604 228.973 271.885 228.402 271.885 227.693V227.597C271.885 226.631 271.515 225.89 270.775 225.375C270.034 224.86 269.084 224.602 267.925 224.602C266.653 224.602 265.615 224.884 264.81 225.447C264.021 225.995 263.546 226.84 263.385 227.983H251.118C251.279 225.729 251.996 223.652 253.267 221.753C254.555 219.837 256.431 218.308 258.894 217.165C261.357 216.006 264.432 215.426 268.118 215.426C270.775 215.426 273.157 215.74 275.266 216.368C277.375 216.98 279.17 217.841 280.651 218.952C282.132 220.046 283.259 221.334 284.032 222.815C284.82 224.28 285.215 225.874 285.215 227.597V253H272.755V247.784H272.465C271.724 249.169 270.823 250.287 269.76 251.141C268.714 251.994 267.515 252.614 266.162 253C264.826 253.386 263.353 253.58 261.743 253.58ZM266.09 245.176C267.104 245.176 268.054 244.967 268.939 244.548C269.841 244.13 270.573 243.526 271.137 242.737C271.7 241.948 271.982 240.991 271.982 239.864V236.773C271.628 236.918 271.249 237.054 270.847 237.183C270.461 237.312 270.042 237.433 269.591 237.545C269.157 237.658 268.69 237.763 268.191 237.859C267.708 237.956 267.201 238.045 266.669 238.125C265.639 238.286 264.794 238.552 264.134 238.922C263.49 239.276 263.007 239.719 262.685 240.25C262.379 240.765 262.226 241.345 262.226 241.989C262.226 243.019 262.588 243.808 263.313 244.355C264.037 244.902 264.963 245.176 266.09 245.176ZM291.584 253V215.909H304.527V222.96H304.913C305.589 220.352 306.66 218.445 308.125 217.237C309.606 216.03 311.337 215.426 313.317 215.426C313.896 215.426 314.468 215.474 315.031 215.571C315.611 215.652 316.166 215.772 316.697 215.933V227.307C316.037 227.081 315.224 226.912 314.259 226.8C313.293 226.687 312.464 226.631 311.771 226.631C310.467 226.631 309.292 226.929 308.246 227.524C307.215 228.104 306.402 228.925 305.807 229.987C305.211 231.034 304.913 232.265 304.913 233.682V253H291.584ZM336.716 253.676C332.756 253.676 329.343 252.92 326.477 251.406C323.628 249.877 321.43 247.687 319.885 244.838C318.356 241.973 317.591 238.544 317.591 234.551C317.591 230.72 318.364 227.371 319.909 224.506C321.455 221.64 323.636 219.411 326.453 217.817C329.27 216.223 332.595 215.426 336.426 215.426C339.227 215.426 341.763 215.861 344.033 216.73C346.303 217.599 348.242 218.863 349.852 220.521C351.462 222.163 352.702 224.16 353.571 226.51C354.44 228.86 354.875 231.509 354.875 234.455V237.545H321.744V230.205H342.608C342.592 229.142 342.318 228.208 341.787 227.403C341.272 226.582 340.571 225.946 339.686 225.496C338.817 225.029 337.827 224.795 336.716 224.795C335.637 224.795 334.647 225.029 333.746 225.496C332.844 225.946 332.12 226.574 331.572 227.379C331.041 228.184 330.759 229.126 330.727 230.205V238.125C330.727 239.316 330.977 240.379 331.476 241.312C331.975 242.246 332.691 242.979 333.625 243.51C334.559 244.041 335.686 244.307 337.006 244.307C337.923 244.307 338.76 244.178 339.517 243.92C340.29 243.663 340.95 243.293 341.497 242.81C342.045 242.311 342.447 241.715 342.705 241.023H354.875C354.456 243.598 353.466 245.836 351.905 247.736C350.343 249.619 348.275 251.084 345.699 252.131C343.139 253.161 340.145 253.676 336.716 253.676Z" fill="#FF5C00"/>
</svg>
